<svg width="49" height="56" viewBox="0 0 49 56" fill="none" xmlns="http://www.w3.org/2000/svg">
<path d="M36.7198 16.5048C36.7198 15.6764 36.0483 15.0048 35.2198 15.0048H31.798V7.29827C31.7981 3.27403 28.524 0 24.4998 0C20.4756 0 17.2015 3.27403 17.2015 7.29827V15.0048H13.7797C12.9512 15.0048 12.2797 15.6764 12.2797 16.5048V32.3617C12.2797 33.1902 12.9512 33.8617 13.7797 33.8617H35.2197C36.0481 33.8617 36.7197 33.1902 36.7197 32.3617L36.7198 16.5048ZM20.4828 7.29827C20.4828 5.08331 22.2848 3.28125 24.4998 3.28125C26.7147 3.28125 28.5168 5.08331 28.5168 7.29827V15.0048H20.4829L20.4828 7.29827Z" fill="#00ABE4"/>
<path d="M39.2586 48.6206C40.3903 48.6206 41.3077 47.7032 41.3077 46.5715C41.3077 45.4399 40.3903 44.5225 39.2586 44.5225C38.127 44.5225 37.2096 45.4399 37.2096 46.5715C37.2096 47.7032 38.127 48.6206 39.2586 48.6206Z" fill="#00ABE4"/>
<path d="M0.3125 54.5C0.3125 55.3284 0.984073 56 1.8125 56H47.187C48.0154 56 48.687 55.3284 48.687 54.5V38.6431C48.687 37.8147 48.0154 37.1431 47.187 37.1431H1.8125C0.984072 37.1431 0.3125 37.8147 0.3125 38.6431V54.5ZM39.2586 41.2412C42.1978 41.2412 44.5889 43.6323 44.5889 46.5714C44.5889 49.5106 42.1978 51.9017 39.2586 51.9017C36.3195 51.9017 33.9284 49.5106 33.9284 46.5714C33.9284 43.6323 36.3194 41.2412 39.2586 41.2412ZM24.4998 41.2412C27.4389 41.2412 29.8301 43.6323 29.8301 46.5714C29.8301 49.5106 27.4389 51.9018 24.4998 51.9018C21.5607 51.9018 19.1695 49.5107 19.1695 46.5715C19.1695 43.6324 21.5607 41.2412 24.4998 41.2412ZM9.74095 41.2412C12.6801 41.2412 15.0712 43.6323 15.0712 46.5714C15.0712 49.5106 12.6801 51.9017 9.74095 51.9017C6.80183 51.9017 4.41067 49.5106 4.41067 46.5714C4.41067 43.6323 6.80183 41.2412 9.74095 41.2412Z" fill="#00ABE4"/>
<path d="M24.4998 48.6206C25.6314 48.6206 26.5488 47.7032 26.5488 46.5715C26.5488 45.4399 25.6314 44.5225 24.4998 44.5225C23.3681 44.5225 22.4508 45.4399 22.4508 46.5715C22.4508 47.7032 23.3681 48.6206 24.4998 48.6206Z" fill="#00ABE4"/>
<path d="M9.74095 48.6206C10.8726 48.6206 11.79 47.7032 11.79 46.5715C11.79 45.4399 10.8726 44.5225 9.74095 44.5225C8.6093 44.5225 7.69192 45.4399 7.69192 46.5715C7.69192 47.7032 8.6093 48.6206 9.74095 48.6206Z" fill="#00ABE4"/>
</svg>
