<svg width="62" height="56" viewBox="0 0 62 56" fill="none" xmlns="http://www.w3.org/2000/svg">
<path d="M59.7178 30.456H38.5316C37.6057 30.456 36.851 31.2108 36.851 32.1365C36.851 32.608 37.0513 33.0328 37.3638 33.3392L52.2821 48.2575C52.5885 48.5877 53.0312 48.7943 53.5148 48.7943C54.0984 48.7943 54.6113 48.4994 54.9121 48.0512C58.5798 43.7938 60.9385 38.3867 61.3632 32.4371C61.3868 32.3369 61.3985 32.2367 61.3985 32.1363C61.3987 31.2108 60.6496 30.456 59.7178 30.456Z" fill="#00ABE4"/>
<path d="M32.1337 0C31.2078 0.00566072 30.4591 0.754763 30.4591 1.68048V25.2255C30.4591 26.1572 31.2078 26.912 32.1337 26.912H55.6847C56.6106 26.912 57.3652 26.1572 57.3652 25.2255C56.5337 11.6754 45.6898 0.83156 32.1337 0Z" fill="#00ABE4"/>
<path d="M45.0767 46.8838L27.7055 29.5125C27.4108 29.2118 27.234 28.7931 27.234 28.3391L27.2277 3.80325C27.2277 2.87753 26.479 2.12862 25.5531 2.12862C11.4426 2.98962 0.268555 14.7118 0.268555 29.035C0.268555 43.9238 12.3391 56 27.2277 56C34.0206 56 40.2238 53.4881 44.9647 49.3426C45.3303 49.0358 45.5604 48.5761 45.5604 48.0631C45.5604 47.6089 45.3773 47.1902 45.0767 46.8838Z" fill="#00ABE4"/>
</svg>
