<svg width="37" height="56" viewBox="0 0 37 56" fill="none" xmlns="http://www.w3.org/2000/svg">
<path d="M18.3328 8.61153C13.1514 8.61153 8.93605 12.827 8.93605 18.0083C8.93605 23.1896 13.1514 27.405 18.3328 27.405C23.5142 27.405 27.7295 23.1897 27.7295 18.0083C27.7295 12.8268 23.5142 8.61153 18.3328 8.61153ZM18.3328 23.1345C15.5062 23.1345 13.2067 20.835 13.2067 18.0084C13.2067 15.1818 15.5062 12.8822 18.3328 12.8822C21.1594 12.8822 23.4589 15.1817 23.4589 18.0083C23.4589 20.8348 21.1594 23.1345 18.3328 23.1345Z" fill="#00ABE4"/>
<path d="M1.60938 0C0.780949 0 0.109375 0.671573 0.109375 1.5V54.5C0.109375 55.3284 0.780948 56 1.60938 56H35.0562C35.8846 56 36.5562 55.3284 36.5562 54.5V1.5C36.5562 0.671574 35.8846 0 35.0562 0H1.60938ZM30.532 50.6697H6.13364V47.3885H30.532V50.6697ZM30.532 43.6987H6.13364V40.4175H30.532V43.6987ZM9.72125 36.7277V33.4464H13.0025V36.7277H9.72125ZM16.6922 36.7277V33.4464H19.9734V36.7277H16.6922ZM23.6631 36.7277V33.4464H26.9443V36.7277H23.6631ZM18.3328 30.6862C11.3421 30.6862 5.6548 24.999 5.6548 18.0083C5.6548 11.0176 11.3421 5.33028 18.3328 5.33028C25.3235 5.33028 31.0108 11.0177 31.0108 18.0083C31.0108 24.9989 25.3235 30.6862 18.3328 30.6862Z" fill="#00ABE4"/>
<path d="M18.3328 19.8531C19.3517 19.8531 20.1776 19.0271 20.1776 18.0083C20.1776 16.9894 19.3517 16.1634 18.3328 16.1634C17.3139 16.1634 16.488 16.9894 16.488 18.0083C16.488 19.0271 17.3139 19.8531 18.3328 19.8531Z" fill="#00ABE4"/>
</svg>
