<svg width="59" height="56" viewBox="0 0 59 56" fill="none" xmlns="http://www.w3.org/2000/svg">
<path d="M58.3795 38.2065L56.7647 36.8136L39.4487 45.7054L45.9334 51.0586C46.6066 51.6157 47.6012 51.5743 48.2281 50.9496L58.472 40.7066C59.1701 40.0063 59.1336 38.8575 58.3795 38.2065Z" fill="#00ABE4"/>
<path d="M14.4672 41.093H4.10946V38.2474C4.10946 37.304 3.34473 36.5401 2.40214 36.5401C1.45956 36.5401 0.694824 37.304 0.694824 38.2474V54.2927C0.694824 55.2353 1.45956 56 2.40214 56C3.34473 56 4.10946 55.2353 4.10946 54.2927V51.3356H17.8818C21.6473 51.3356 24.7111 48.2717 24.7111 44.5063V43.5446L14.4672 35.2107V41.093Z" fill="#00ABE4"/>
<path d="M5.6505 11.0486L2.73383 13.9724C0.589451 16.1221 0.772632 19.6643 3.12775 21.5811L31.6013 44.7486C32.1273 45.1768 32.8569 45.2523 33.4589 44.9429L41.8457 40.6364L5.6505 11.0486Z" fill="#00ABE4"/>
<path d="M56.7918 32.961C57.8789 32.4043 58.047 30.91 57.0991 30.1261L22.0457 1.17905C19.9978 -0.51226 17.0397 -0.36865 15.1639 1.51118L8.07409 8.61967L45.1594 38.9348L56.7918 32.961ZM43.4916 30.8499C42.5495 30.8499 41.7843 30.0852 41.7843 29.1426C41.7843 28.2005 42.5495 27.4358 43.4916 27.4358C44.4342 27.4358 45.1989 28.2005 45.1989 29.1426C45.1989 30.0852 44.4342 30.8499 43.4916 30.8499Z" fill="#00ABE4"/>
</svg>
